<?xml version="1.0" standalone="no"?>
<!DOCTYPE svg PUBLIC "-//W3C//DTD SVG 20010904//EN"
 "http://www.w3.org/TR/2001/REC-SVG-20010904/DTD/svg10.dtd">
<svg version="1.0" xmlns="http://www.w3.org/2000/svg"
 width="352.000000pt" height="377.000000pt" viewBox="0 0 352.000000 377.000000"
 preserveAspectRatio="xMidYMid meet">

<g transform="translate(0.000000,377.000000) scale(0.100000,-0.100000)"
fill="#000000" stroke="none">
<path d="M2815 3449 c-42 -12 -110 -72 -140 -122 -34 -60 -46 -145 -29 -223
19 -92 66 -159 137 -195 24 -13 37 -26 37 -39 0 -19 -7 -20 -160 -20 -98 0
-169 -4 -184 -11 -28 -13 -33 -24 -75 -188 -17 -62 -32 -115 -34 -118 -3 -2
-7 94 -10 214 -4 184 -8 229 -26 291 -80 274 -264 424 -475 391 -133 -22 -237
-110 -310 -262 -69 -144 -79 -201 -84 -501 -4 -243 -3 -260 15 -285 19 -26 19
-26 -33 -298 -48 -249 -56 -278 -88 -331 -71 -117 -131 -286 -163 -456 -14
-76 -17 -164 -17 -544 l-1 -454 24 -19 c22 -18 50 -19 816 -19 751 0 794 1
815 18 20 16 24 32 33 155 6 75 14 137 19 137 4 0 8 -15 8 -32 1 -18 5 -80 10
-138 11 -142 9 -140 191 -140 126 0 141 2 159 20 20 20 20 33 20 685 l0 665
84 0 c136 0 161 20 146 115 -45 277 -172 1018 -180 1046 -15 53 -38 59 -220
59 -153 0 -160 1 -160 20 0 13 13 26 38 39 104 53 161 183 140 317 -12 75 -38
123 -94 173 -65 57 -132 73 -209 50z m120 -141 c31 -24 64 -90 65 -128 0 -109
-83 -194 -157 -158 -90 43 -106 197 -28 275 39 39 79 43 120 11z m-915 -28
c80 -41 152 -154 190 -296 16 -63 20 -109 20 -241 0 -90 -3 -163 -6 -163 -3 0
-18 9 -33 20 -35 24 -113 42 -166 38 -38 -3 -40 -1 -43 27 -2 26 3 33 38 53
79 45 139 167 126 259 -14 102 -73 186 -155 220 -59 25 -149 13 -205 -28 -98
-70 -135 -221 -82 -334 26 -56 74 -108 117 -125 24 -10 29 -18 29 -45 0 -33
-1 -33 -38 -28 -53 7 -144 -14 -186 -42 l-36 -24 0 137 c0 162 11 243 43 339
44 129 126 224 218 252 45 13 123 5 169 -19z m-30 -237 c65 -83 16 -223 -78
-223 -33 0 -45 6 -71 35 -27 31 -31 43 -31 95 0 52 4 64 30 94 17 19 41 36 53
38 33 6 75 -11 97 -39z m773 -454 l57 -130 0 -319 0 -320 -104 0 -104 0 -6
103 c-3 56 -10 201 -16 322 -5 121 -13 277 -16 348 l-7 127 69 0 69 -1 58
-130z m147 121 c0 -15 -23 -60 -30 -60 -7 0 -30 45 -30 60 0 6 14 10 30 10 17
0 30 -4 30 -10z m280 -22 c0 -45 -28 -638 -36 -766 l-6 -103 -101 3 -102 3 0
325 0 325 55 122 55 123 68 0 67 0 0 -32z m-1280 -191 c19 -1 65 3 101 7 79
10 130 -8 149 -54 14 -33 6 -83 -16 -101 -31 -26 -78 -104 -100 -168 l-23 -65
-109 -1 -110 0 -17 55 c-23 73 -36 97 -84 155 -33 40 -41 57 -41 91 0 69 49
98 150 87 36 -3 81 -6 100 -6z m559 -422 c6 -148 14 -290 16 -315 l5 -45 -34
56 c-29 45 -39 77 -56 172 l-20 118 37 144 c20 80 37 144 39 142 1 -1 7 -123
13 -272z m-809 67 c11 -29 20 -58 20 -65 -1 -15 -120 -90 -120 -75 0 6 10 63
22 125 22 113 22 114 40 91 10 -13 27 -47 38 -76z m580 -27 c11 -60 18 -110
16 -112 -2 -2 -29 12 -59 31 l-55 36 10 37 c15 57 55 130 64 120 2 -2 13 -53
24 -112z m1095 -155 c15 -91 29 -173 31 -182 5 -15 -2 -18 -40 -18 l-46 0 0
48 c0 131 14 354 21 337 4 -11 20 -94 34 -185z m-1276 1 c194 -78 332 -267
411 -566 45 -169 50 -238 50 -636 l0 -369 -611 0 -611 0 5 418 c4 384 6 425
26 517 76 340 257 587 480 651 64 19 183 11 250 -15z m1081 -921 l0 -650 -54
0 -54 0 -6 48 c-3 26 -22 245 -41 487 -19 242 -37 457 -39 478 -5 48 -31 77
-66 77 -47 0 -61 -27 -71 -147 -5 -59 -13 -162 -19 -228 -5 -66 -19 -232 -30
-370 -11 -137 -23 -271 -26 -297 l-6 -48 -39 0 -39 0 0 388 c0 292 -4 411 -15
486 -9 57 -15 169 -15 263 l0 163 260 0 260 0 0 -650z"/>
</g>
</svg>
